%TF.GenerationSoftware,KiCad,Pcbnew,10.0.5-10.0.5~ubuntu24.04.1*%
%TF.CreationDate,2026-07-26T19:50:47+00:00*%
%TF.ProjectId,replay-board,7265706c-6179-42d6-926f-6172642e6b69,rev?*%
%TF.SameCoordinates,Original*%
%TF.FileFunction,Legend,Top*%
%TF.FilePolarity,Positive*%
%FSLAX46Y46*%
G04 Gerber Fmt 4.6, Leading zero omitted, Abs format (unit mm)*
G04 Created by KiCad (PCBNEW 10.0.5-10.0.5~ubuntu24.04.1) date 2026-07-26 19:50:47*
%MOMM*%
%LPD*%
G01*
G04 APERTURE LIST*
%ADD10C,0.150000*%
%ADD11C,0.200000*%
G04 APERTURE END LIST*
D10*
X108666666Y-108454819D02*
X108333333Y-107978628D01*
X108095238Y-108454819D02*
X108095238Y-107454819D01*
X108095238Y-107454819D02*
X108476190Y-107454819D01*
X108476190Y-107454819D02*
X108571428Y-107502438D01*
X108571428Y-107502438D02*
X108619047Y-107550057D01*
X108619047Y-107550057D02*
X108666666Y-107645295D01*
X108666666Y-107645295D02*
X108666666Y-107788152D01*
X108666666Y-107788152D02*
X108619047Y-107883390D01*
X108619047Y-107883390D02*
X108571428Y-107931009D01*
X108571428Y-107931009D02*
X108476190Y-107978628D01*
X108476190Y-107978628D02*
X108095238Y-107978628D01*
X109095238Y-107931009D02*
X109428571Y-107931009D01*
X109571428Y-108454819D02*
X109095238Y-108454819D01*
X109095238Y-108454819D02*
X109095238Y-107454819D01*
X109095238Y-107454819D02*
X109571428Y-107454819D01*
X110333333Y-107931009D02*
X110000000Y-107931009D01*
X110000000Y-108454819D02*
X110000000Y-107454819D01*
X110000000Y-107454819D02*
X110476190Y-107454819D01*
X111000000Y-107454819D02*
X111000000Y-107692914D01*
X110761905Y-107597676D02*
X111000000Y-107692914D01*
X111000000Y-107692914D02*
X111238095Y-107597676D01*
X110857143Y-107883390D02*
X111000000Y-107692914D01*
X111000000Y-107692914D02*
X111142857Y-107883390D01*
X111761905Y-107454819D02*
X111761905Y-107692914D01*
X111523810Y-107597676D02*
X111761905Y-107692914D01*
X111761905Y-107692914D02*
X112000000Y-107597676D01*
X111619048Y-107883390D02*
X111761905Y-107692914D01*
X111761905Y-107692914D02*
X111904762Y-107883390D01*
%TO.C,REF\u002A\u002A*%
D11*
X109000000Y-109000000D02*
X111000000Y-109000000D01*
%TD*%
M02*
