%TF.GenerationSoftware,KiCad,Pcbnew,10.0.5-10.0.5~ubuntu24.04.1*%
%TF.CreationDate,2026-07-26T19:50:47+00:00*%
%TF.ProjectId,replay-board,7265706c-6179-42d6-926f-6172642e6b69,rev?*%
%TF.SameCoordinates,Original*%
%TF.FileFunction,AssemblyDrawing,Top*%
%FSLAX46Y46*%
G04 Gerber Fmt 4.6, Leading zero omitted, Abs format (unit mm)*
G04 Created by KiCad (PCBNEW 10.0.5-10.0.5~ubuntu24.04.1) date 2026-07-26 19:50:47*
%MOMM*%
%LPD*%
G01*
G04 APERTURE LIST*
%ADD10C,0.150000*%
G04 APERTURE END LIST*
D10*
X103119046Y-112169104D02*
X103595236Y-112169104D01*
X103023808Y-112454819D02*
X103357141Y-111454819D01*
X103357141Y-111454819D02*
X103690474Y-112454819D01*
X104452379Y-112407200D02*
X104357141Y-112454819D01*
X104357141Y-112454819D02*
X104166665Y-112454819D01*
X104166665Y-112454819D02*
X104071427Y-112407200D01*
X104071427Y-112407200D02*
X104023808Y-112359580D01*
X104023808Y-112359580D02*
X103976189Y-112264342D01*
X103976189Y-112264342D02*
X103976189Y-111978628D01*
X103976189Y-111978628D02*
X104023808Y-111883390D01*
X104023808Y-111883390D02*
X104071427Y-111835771D01*
X104071427Y-111835771D02*
X104166665Y-111788152D01*
X104166665Y-111788152D02*
X104357141Y-111788152D01*
X104357141Y-111788152D02*
X104452379Y-111835771D01*
X105309522Y-112407200D02*
X105214284Y-112454819D01*
X105214284Y-112454819D02*
X105023808Y-112454819D01*
X105023808Y-112454819D02*
X104928570Y-112407200D01*
X104928570Y-112407200D02*
X104880951Y-112359580D01*
X104880951Y-112359580D02*
X104833332Y-112264342D01*
X104833332Y-112264342D02*
X104833332Y-111978628D01*
X104833332Y-111978628D02*
X104880951Y-111883390D01*
X104880951Y-111883390D02*
X104928570Y-111835771D01*
X104928570Y-111835771D02*
X105023808Y-111788152D01*
X105023808Y-111788152D02*
X105214284Y-111788152D01*
X105214284Y-111788152D02*
X105309522Y-111835771D01*
X106119046Y-112407200D02*
X106023808Y-112454819D01*
X106023808Y-112454819D02*
X105833332Y-112454819D01*
X105833332Y-112454819D02*
X105738094Y-112407200D01*
X105738094Y-112407200D02*
X105690475Y-112311961D01*
X105690475Y-112311961D02*
X105690475Y-111931009D01*
X105690475Y-111931009D02*
X105738094Y-111835771D01*
X105738094Y-111835771D02*
X105833332Y-111788152D01*
X105833332Y-111788152D02*
X106023808Y-111788152D01*
X106023808Y-111788152D02*
X106119046Y-111835771D01*
X106119046Y-111835771D02*
X106166665Y-111931009D01*
X106166665Y-111931009D02*
X106166665Y-112026247D01*
X106166665Y-112026247D02*
X105690475Y-112121485D01*
X106595237Y-111788152D02*
X106595237Y-112788152D01*
X106595237Y-111835771D02*
X106690475Y-111788152D01*
X106690475Y-111788152D02*
X106880951Y-111788152D01*
X106880951Y-111788152D02*
X106976189Y-111835771D01*
X106976189Y-111835771D02*
X107023808Y-111883390D01*
X107023808Y-111883390D02*
X107071427Y-111978628D01*
X107071427Y-111978628D02*
X107071427Y-112264342D01*
X107071427Y-112264342D02*
X107023808Y-112359580D01*
X107023808Y-112359580D02*
X106976189Y-112407200D01*
X106976189Y-112407200D02*
X106880951Y-112454819D01*
X106880951Y-112454819D02*
X106690475Y-112454819D01*
X106690475Y-112454819D02*
X106595237Y-112407200D01*
X107357142Y-111788152D02*
X107738094Y-111788152D01*
X107499999Y-111454819D02*
X107499999Y-112311961D01*
X107499999Y-112311961D02*
X107547618Y-112407200D01*
X107547618Y-112407200D02*
X107642856Y-112454819D01*
X107642856Y-112454819D02*
X107738094Y-112454819D01*
X108499999Y-112454819D02*
X108499999Y-111931009D01*
X108499999Y-111931009D02*
X108452380Y-111835771D01*
X108452380Y-111835771D02*
X108357142Y-111788152D01*
X108357142Y-111788152D02*
X108166666Y-111788152D01*
X108166666Y-111788152D02*
X108071428Y-111835771D01*
X108499999Y-112407200D02*
X108404761Y-112454819D01*
X108404761Y-112454819D02*
X108166666Y-112454819D01*
X108166666Y-112454819D02*
X108071428Y-112407200D01*
X108071428Y-112407200D02*
X108023809Y-112311961D01*
X108023809Y-112311961D02*
X108023809Y-112216723D01*
X108023809Y-112216723D02*
X108071428Y-112121485D01*
X108071428Y-112121485D02*
X108166666Y-112073866D01*
X108166666Y-112073866D02*
X108404761Y-112073866D01*
X108404761Y-112073866D02*
X108499999Y-112026247D01*
X108976190Y-111788152D02*
X108976190Y-112454819D01*
X108976190Y-111883390D02*
X109023809Y-111835771D01*
X109023809Y-111835771D02*
X109119047Y-111788152D01*
X109119047Y-111788152D02*
X109261904Y-111788152D01*
X109261904Y-111788152D02*
X109357142Y-111835771D01*
X109357142Y-111835771D02*
X109404761Y-111931009D01*
X109404761Y-111931009D02*
X109404761Y-112454819D01*
X110309523Y-112407200D02*
X110214285Y-112454819D01*
X110214285Y-112454819D02*
X110023809Y-112454819D01*
X110023809Y-112454819D02*
X109928571Y-112407200D01*
X109928571Y-112407200D02*
X109880952Y-112359580D01*
X109880952Y-112359580D02*
X109833333Y-112264342D01*
X109833333Y-112264342D02*
X109833333Y-111978628D01*
X109833333Y-111978628D02*
X109880952Y-111883390D01*
X109880952Y-111883390D02*
X109928571Y-111835771D01*
X109928571Y-111835771D02*
X110023809Y-111788152D01*
X110023809Y-111788152D02*
X110214285Y-111788152D01*
X110214285Y-111788152D02*
X110309523Y-111835771D01*
X111119047Y-112407200D02*
X111023809Y-112454819D01*
X111023809Y-112454819D02*
X110833333Y-112454819D01*
X110833333Y-112454819D02*
X110738095Y-112407200D01*
X110738095Y-112407200D02*
X110690476Y-112311961D01*
X110690476Y-112311961D02*
X110690476Y-111931009D01*
X110690476Y-111931009D02*
X110738095Y-111835771D01*
X110738095Y-111835771D02*
X110833333Y-111788152D01*
X110833333Y-111788152D02*
X111023809Y-111788152D01*
X111023809Y-111788152D02*
X111119047Y-111835771D01*
X111119047Y-111835771D02*
X111166666Y-111931009D01*
X111166666Y-111931009D02*
X111166666Y-112026247D01*
X111166666Y-112026247D02*
X110690476Y-112121485D01*
X111357143Y-112550057D02*
X112119047Y-112550057D01*
X112357143Y-112454819D02*
X112357143Y-111454819D01*
X112357143Y-111454819D02*
X112690476Y-112169104D01*
X112690476Y-112169104D02*
X113023809Y-111454819D01*
X113023809Y-111454819D02*
X113023809Y-112454819D01*
X113928571Y-112454819D02*
X113928571Y-111931009D01*
X113928571Y-111931009D02*
X113880952Y-111835771D01*
X113880952Y-111835771D02*
X113785714Y-111788152D01*
X113785714Y-111788152D02*
X113595238Y-111788152D01*
X113595238Y-111788152D02*
X113500000Y-111835771D01*
X113928571Y-112407200D02*
X113833333Y-112454819D01*
X113833333Y-112454819D02*
X113595238Y-112454819D01*
X113595238Y-112454819D02*
X113500000Y-112407200D01*
X113500000Y-112407200D02*
X113452381Y-112311961D01*
X113452381Y-112311961D02*
X113452381Y-112216723D01*
X113452381Y-112216723D02*
X113500000Y-112121485D01*
X113500000Y-112121485D02*
X113595238Y-112073866D01*
X113595238Y-112073866D02*
X113833333Y-112073866D01*
X113833333Y-112073866D02*
X113928571Y-112026247D01*
X114404762Y-112454819D02*
X114404762Y-111788152D01*
X114404762Y-111978628D02*
X114452381Y-111883390D01*
X114452381Y-111883390D02*
X114500000Y-111835771D01*
X114500000Y-111835771D02*
X114595238Y-111788152D01*
X114595238Y-111788152D02*
X114690476Y-111788152D01*
X115023810Y-112454819D02*
X115023810Y-111454819D01*
X115119048Y-112073866D02*
X115404762Y-112454819D01*
X115404762Y-111788152D02*
X115023810Y-112169104D01*
X116214286Y-112407200D02*
X116119048Y-112454819D01*
X116119048Y-112454819D02*
X115928572Y-112454819D01*
X115928572Y-112454819D02*
X115833334Y-112407200D01*
X115833334Y-112407200D02*
X115785715Y-112311961D01*
X115785715Y-112311961D02*
X115785715Y-111931009D01*
X115785715Y-111931009D02*
X115833334Y-111835771D01*
X115833334Y-111835771D02*
X115928572Y-111788152D01*
X115928572Y-111788152D02*
X116119048Y-111788152D01*
X116119048Y-111788152D02*
X116214286Y-111835771D01*
X116214286Y-111835771D02*
X116261905Y-111931009D01*
X116261905Y-111931009D02*
X116261905Y-112026247D01*
X116261905Y-112026247D02*
X115785715Y-112121485D01*
X116690477Y-112454819D02*
X116690477Y-111788152D01*
X116690477Y-111978628D02*
X116738096Y-111883390D01*
X116738096Y-111883390D02*
X116785715Y-111835771D01*
X116785715Y-111835771D02*
X116880953Y-111788152D01*
X116880953Y-111788152D02*
X116976191Y-111788152D01*
M02*
